<?xml version="1.0" encoding="utf-8"?>
<!-- Generator: Adobe Illustrator 26.0.0, SVG Export Plug-In . SVG Version: 6.00 Build 0)  -->
<svg version="1.1" id="Layer_1" xmlns="http://www.w3.org/2000/svg" xmlns:xlink="http://www.w3.org/1999/xlink" x="0px" y="0px"
	 viewBox="0 0 425 113" style="enable-background:new 0 0 425 113;" xml:space="preserve">
<style type="text/css">
	.st0{fill:#F6891F;}
	.st1{fill:#FFFFFF;}
	.st2{fill:#009D4E;}
	.st3{fill:#F78D1E;}
</style>
<path d="M404,43.3l-19.9-27.7h-6v40.1h6.4V27.2L405,55.7h5.5V15.6H404V43.3z M358.7,39.8h-12.8l6.4-16L358.7,39.8z M355.4,15.3h-6
	l-16.3,40.4h6.7l3.8-9.7h17.5l3.8,9.7h6.9L355.4,15.3z M321.8,22.1h11.8v-6.5h-30.1v6.5h11.8v33.6h6.6V22.1z M277.5,26.1
	c0-2.7,2.2-4.8,6-4.8c3.4,0,6.7,1.4,10.1,4.1l3.5-5.3c-3.8-3.3-8.1-5-13.5-5c-7.4,0-12.7,4.7-12.7,11.7c0,7.5,4.5,10,12.3,12
	c6.9,1.7,8.4,3.3,8.4,6.2c0,3.1-2.5,5.1-6.6,5.1c-4.6,0-8.2-1.9-11.7-5.2l-3.9,5c4.5,4.3,9.8,6.4,15.5,6.4c7.8,0,13.2-4.5,13.2-12
	c0-6.7-4.1-9.7-11.9-11.8C279.2,30.6,277.5,29.2,277.5,26.1z M262.5,15.6h-6.5v23.1c0,7.4-3.6,11.2-9.3,11.2c-5.8,0-9.4-4-9.4-11.5
	V15.6h-6.5v23.1c0,11.6,6.1,17.7,15.8,17.7c9.7,0,16-6,16-18V15.6z M216,35.7c0,7.9-5.1,13.6-12.9,13.6h-7.3V22h7.3
	C210.9,22,216,27.8,216,35.7z M222.9,35.6c0-11.4-8.1-20-19.7-20h-13.8v40.1h13.8C214.8,55.7,222.9,47,222.9,35.6z M172.8,43.3
	L153,15.6h-6v40.1h6.4V27.2l20.5,28.5h5.5V15.6h-6.4V43.3z M129.4,15.6v40.1h6.5V15.6H129.4z M112.5,38.8v16.9h6.5V15.6h-6.5v16.7
	H94.8V15.6h-6.5v40.1h6.5V38.8H112.5z"/>
<path d="M148.6,98l0.9-1.4c-2.5-1.7-3.7-3.5-3.7-6.1c0-2.6,1.2-4.4,3.7-6.1l-0.9-1.4c-3.2,1.8-4.9,4.2-4.9,7.5
	C143.8,93.8,145.4,96.2,148.6,98"/>
<path d="M353.3,98c3.2-1.8,4.9-4.2,4.9-7.5c0-3.3-1.7-5.7-4.9-7.5l-0.9,1.4c2.5,1.6,3.7,3.5,3.7,6.1c0,2.6-1.2,4.4-3.7,6.1L353.3,98
	z"/>
<path d="M155.2,87.4c2,0,3.4,1.4,3.4,3.3v0c0,1.9-1.3,3.3-3.4,3.3h-1.9v-6.6H155.2z M151.6,95.5h3.6c3,0,5.2-2.1,5.2-4.8v0
	c0-2.7-2.1-4.8-5.2-4.8h-3.6V95.5z"/>
<polygon points="162.5,95.5 169.7,95.5 169.7,94 164.2,94 164.2,91.4 169,91.4 169,89.9 164.2,89.9 164.2,87.3 169.6,87.3 
	169.6,85.8 162.5,85.8 "/>
<polygon points="171.7,95.5 179,95.5 179,94 173.4,94 173.4,91.4 178.3,91.4 178.3,89.9 173.4,89.9 173.4,87.3 178.9,87.3 
	178.9,85.8 171.7,85.8 "/>
<polygon points="181,95.5 182.7,95.5 182.7,88.6 185.7,93.1 185.8,93.1 188.8,88.6 188.8,95.5 190.6,95.5 190.6,85.8 188.7,85.8 
	185.8,90.4 182.8,85.8 181,85.8 "/>
<polygon points="193,95.5 200.3,95.5 200.3,94 194.7,94 194.7,91.4 199.6,91.4 199.6,89.9 194.7,89.9 194.7,87.3 200.2,87.3 
	200.2,85.8 193,85.8 "/>
<path d="M205.9,87.4c2,0,3.4,1.4,3.4,3.3v0c0,1.9-1.3,3.3-3.4,3.3H204v-6.6H205.9z M202.3,95.5h3.6c3,0,5.2-2.1,5.2-4.8v0
	c0-2.7-2.1-4.8-5.2-4.8h-3.6V95.5z"/>
<polygon points="219.7,95.5 221.4,95.5 221.4,87.4 224.5,87.4 224.5,85.8 216.6,85.8 216.6,87.4 219.7,87.4 "/>
<path d="M230.4,94.1c-1.9,0-3.3-1.6-3.3-3.4v0c0-1.9,1.3-3.4,3.3-3.4c1.9,0,3.3,1.6,3.3,3.4v0C233.7,92.6,232.3,94.1,230.4,94.1
	 M230.4,95.7c3,0,5.1-2.3,5.1-5v0c0-2.7-2.1-5-5.1-5c-3,0-5.1,2.3-5.1,5v0C225.3,93.4,227.4,95.7,230.4,95.7z"/>
<path d="M248.1,92.6L248.1,92.6c0,0.9-0.7,1.4-1.9,1.4h-2.8v-2.7h2.7C247.4,91.3,248.1,91.8,248.1,92.6 M247.5,88.6
	c0,0.9-0.7,1.3-1.8,1.3h-2.3v-2.6h2.5C246.9,87.3,247.5,87.8,247.5,88.6L247.5,88.6z M241.7,95.5h4.5c2.2,0,3.6-0.9,3.6-2.7v0
	c0-1.3-0.8-2-1.9-2.4c0.7-0.4,1.4-1,1.4-2.2v0c0-0.7-0.2-1.2-0.7-1.6c-0.6-0.6-1.4-0.9-2.5-0.9h-4.3V95.5z"/>
<polygon points="251.7,95.5 258.9,95.5 258.9,94 253.4,94 253.4,91.4 258.3,91.4 258.3,89.9 253.4,89.9 253.4,87.3 258.9,87.3 
	258.9,85.8 251.7,85.8 "/>
<path d="M269.1,95.7c2.5,0,4.2-1.5,4.2-4.3v-5.5h-1.7v5.6c0,1.8-0.9,2.7-2.4,2.7c-1.5,0-2.5-1-2.5-2.8v-5.5H265v5.6
	C265,94.2,266.6,95.7,269.1,95.7"/>
<polygon points="275.6,95.5 277.3,95.5 277.3,88.6 282.6,95.5 284.1,95.5 284.1,85.8 282.4,85.8 282.4,92.5 277.2,85.8 275.6,85.8 
	"/>
<rect x="286.7" y="85.8" width="1.7" height="9.7"/>
<polygon points="294.1,95.6 295.7,95.6 299.7,85.8 297.8,85.8 294.9,93.3 292,85.8 290.1,85.8 "/>
<polygon points="301.3,95.5 308.6,95.5 308.6,94 303,94 303,91.4 307.9,91.4 307.9,89.9 303,89.9 303,87.3 308.5,87.3 308.5,85.8 
	301.3,85.8 "/>
<path d="M312.3,90.6v-3.3h2.5c1.3,0,2,0.6,2,1.6v0c0,1-0.8,1.6-2,1.6H312.3z M310.6,95.5h1.7v-3.4h2.1l2.4,3.4h2l-2.6-3.7
	c1.3-0.4,2.3-1.3,2.3-2.9v0c0-0.8-0.3-1.6-0.8-2.1c-0.6-0.6-1.6-1-2.8-1h-4.3V95.5z"/>
<path d="M324,95.6c2,0,3.5-1.1,3.5-2.9v0c0-1.6-1.1-2.3-3.1-2.8c-1.9-0.4-2.3-0.8-2.3-1.5v0c0-0.6,0.6-1.1,1.6-1.1
	c0.9,0,1.8,0.3,2.6,1l0.9-1.3c-1-0.8-2.1-1.2-3.5-1.2c-1.9,0-3.3,1.1-3.3,2.8v0c0,1.8,1.2,2.4,3.2,2.9c1.8,0.4,2.2,0.8,2.2,1.5v0
	c0,0.7-0.7,1.2-1.7,1.2c-1.2,0-2.1-0.5-3.1-1.3l-1,1.2C321.1,95.1,322.5,95.6,324,95.6"/>
<rect x="329.6" y="85.8" width="1.7" height="9.7"/>
<polygon points="336.3,95.5 338,95.5 338,87.4 341.1,87.4 341.1,85.8 333.2,85.8 333.2,87.4 336.3,87.4 "/>
<polygon points="345.7,95.5 347.4,95.5 347.4,91.6 351.3,85.8 349.3,85.8 346.6,90.1 343.9,85.8 341.9,85.8 345.7,91.7 "/>
<rect x="88.2" y="66.1" width="1.9" height="11"/>
<polygon points="93.1,77.1 95,77.1 95,69.3 101,77.1 102.6,77.1 102.6,66.1 100.8,66.1 100.8,73.7 94.9,66.1 93.1,66.1 "/>
<path d="M109.3,77.2c2.3,0,3.9-1.2,3.9-3.3v0c0-1.8-1.2-2.6-3.5-3.2c-2.1-0.5-2.6-0.9-2.6-1.7v0c0-0.7,0.7-1.3,1.8-1.3
	c1,0,2,0.4,3,1.1l1-1.5c-1.1-0.9-2.4-1.4-4-1.4c-2.2,0-3.7,1.3-3.7,3.2v0c0,2,1.3,2.7,3.6,3.3c2,0.5,2.5,0.9,2.5,1.7v0
	c0,0.8-0.8,1.4-1.9,1.4c-1.3,0-2.4-0.5-3.5-1.4l-1.2,1.4C106,76.7,107.6,77.2,109.3,77.2"/>
<polygon points="117.9,77.1 119.9,77.1 119.9,67.9 123.4,67.9 123.4,66.1 114.5,66.1 114.5,67.9 117.9,67.9 "/>
<rect x="125.5" y="66.1" width="1.9" height="11"/>
<polygon points="133,77.1 135,77.1 135,67.9 138.5,67.9 138.5,66.1 129.6,66.1 129.6,67.9 133,67.9 "/>
<path d="M145,77.3c2.9,0,4.7-1.6,4.7-4.9v-6.2h-1.9v6.3c0,2-1,3-2.8,3c-1.7,0-2.8-1.1-2.8-3.1v-6.2h-1.9v6.3
	C140.3,75.6,142.1,77.3,145,77.3"/>
<polygon points="155,77.1 157,77.1 157,67.9 160.4,67.9 160.4,66.1 151.6,66.1 151.6,67.9 155,67.9 "/>
<polygon points="162.5,77.1 170.7,77.1 170.7,75.4 164.4,75.4 164.4,72.4 169.9,72.4 169.9,70.7 164.4,70.7 164.4,67.9 170.6,67.9 
	170.6,66.1 162.5,66.1 "/>
<path d="M182.9,75.5c-2.2,0-3.7-1.8-3.7-3.9v0c0-2.1,1.5-3.9,3.7-3.9c2.2,0,3.7,1.8,3.7,3.9v0C186.6,73.8,185.1,75.5,182.9,75.5
	 M182.9,77.3c3.4,0,5.7-2.6,5.7-5.7v0c0-3.1-2.3-5.6-5.7-5.6c-3.4,0-5.7,2.6-5.7,5.7v0C177.2,74.7,179.5,77.3,182.9,77.3z"/>
<polygon points="191,77.1 192.9,77.1 192.9,72.6 198.4,72.6 198.4,70.9 192.9,70.9 192.9,67.9 199.1,67.9 199.1,66.1 191,66.1 "/>
<polygon points="208.6,77.1 210.6,77.1 210.6,67.9 214,67.9 214,66.1 205.1,66.1 205.1,67.9 208.6,67.9 "/>
<polygon points="216.1,77.1 224.3,77.1 224.3,75.4 218,75.4 218,72.4 223.5,72.4 223.5,70.7 218,70.7 218,67.9 224.2,67.9 
	224.2,66.1 216.1,66.1 "/>
<path d="M231.6,77.3c2.1,0,3.3-0.8,4.4-1.9l-1.2-1.3c-0.9,0.9-1.8,1.4-3.1,1.4c-2.1,0-3.6-1.7-3.6-3.9v0c0-2.1,1.5-3.9,3.6-3.9
	c1.3,0,2.2,0.5,3.1,1.4l1.2-1.4c-1-1-2.3-1.7-4.3-1.7c-3.3,0-5.6,2.6-5.6,5.7v0C226.1,74.8,228.4,77.3,231.6,77.3"/>
<polygon points="238.1,77.1 240,77.1 240,72.5 245.2,72.5 245.2,77.1 247.2,77.1 247.2,66.1 245.2,66.1 245.2,70.7 240,70.7 
	240,66.1 238.1,66.1 "/>
<polygon points="250,77.1 251.9,77.1 251.9,69.3 257.9,77.1 259.5,77.1 259.5,66.1 257.6,66.1 257.6,73.7 251.8,66.1 250,66.1 "/>
<path d="M267.6,75.5c-2.2,0-3.7-1.8-3.7-3.9v0c0-2.1,1.5-3.9,3.7-3.9c2.2,0,3.7,1.8,3.7,3.9v0C271.3,73.8,269.8,75.5,267.6,75.5
	 M267.6,77.3c3.4,0,5.7-2.6,5.7-5.7v0c0-3.1-2.3-5.6-5.7-5.6c-3.4,0-5.7,2.6-5.7,5.7v0C261.9,74.7,264.2,77.3,267.6,77.3z"/>
<polygon points="275.7,77.1 283.3,77.1 283.3,75.3 277.6,75.3 277.6,66.1 275.7,66.1 "/>
<path d="M290,75.5c-2.2,0-3.7-1.8-3.7-3.9v0c0-2.1,1.5-3.9,3.7-3.9c2.2,0,3.7,1.8,3.7,3.9v0C293.7,73.8,292.2,75.5,290,75.5
	 M289.9,77.3c3.4,0,5.7-2.6,5.7-5.7v0c0-3.1-2.3-5.6-5.7-5.6c-3.4,0-5.7,2.6-5.7,5.7v0C284.2,74.7,286.6,77.3,289.9,77.3z"/>
<path d="M303.2,77.3c1.9,0,3.5-0.8,4.6-1.7V71h-4.7v1.7h2.8v2.1c-0.7,0.5-1.6,0.8-2.6,0.8c-2.2,0-3.7-1.7-3.7-3.9v0
	c0-2.1,1.5-3.9,3.6-3.9c1.4,0,2.2,0.5,3.1,1.2l1.2-1.5c-1.1-1-2.3-1.5-4.2-1.5c-3.3,0-5.6,2.6-5.6,5.7v0
	C297.5,74.8,299.8,77.3,303.2,77.3"/>
<polygon points="313,77.1 315,77.1 315,72.7 319.3,66.1 317.1,66.1 314,71 311,66.1 308.7,66.1 313,72.8 "/>
<path d="M328.7,75.6c-1.1,0-1.8-0.7-1.8-1.6v0c0-0.7,0.4-1.4,1.5-1.8l2.4,2.5C330.1,75.3,329.4,75.6,328.7,75.6 M329,70.4
	c-0.6-0.7-0.8-1.1-0.8-1.6v0c0-0.8,0.5-1.3,1.3-1.3c0.7,0,1.2,0.5,1.2,1.2v0C330.7,69.5,330.1,70,329,70.4z M333.3,77.3l1.4-1
	l-1.7-1.8c0.6-0.8,1-1.6,1.5-2.5l-1.5-0.8c-0.4,0.8-0.8,1.5-1.2,2.1l-1.9-1.9c1.5-0.5,2.4-1.4,2.4-2.8v0c0-1.5-1.2-2.6-2.9-2.6
	c-2,0-3.1,1.3-3.1,2.8v0c0,0.8,0.3,1.5,0.9,2.3c-1.5,0.6-2.3,1.7-2.3,3.1v0c0,1.9,1.5,3.1,3.6,3.1c1.3,0,2.4-0.5,3.3-1.4L333.3,77.3
	z"/>
<path d="M345.1,77.2c2.3,0,3.9-1.2,3.9-3.3v0c0-1.8-1.2-2.6-3.5-3.2c-2.1-0.5-2.6-0.9-2.6-1.7v0c0-0.7,0.7-1.3,1.8-1.3
	c1,0,2,0.4,3,1.1l1-1.5c-1.1-0.9-2.4-1.4-4-1.4c-2.2,0-3.7,1.3-3.7,3.2v0c0,2,1.3,2.7,3.6,3.3c2,0.5,2.5,0.9,2.5,1.7v0
	c0,0.8-0.8,1.4-1.9,1.4c-1.3,0-2.4-0.5-3.5-1.4l-1.2,1.4C341.9,76.7,343.5,77.2,345.1,77.2"/>
<path d="M356.4,77.3c2.1,0,3.3-0.8,4.4-1.9l-1.2-1.3c-0.9,0.9-1.8,1.4-3.1,1.4c-2.1,0-3.6-1.7-3.6-3.9v0c0-2.1,1.5-3.9,3.6-3.9
	c1.3,0,2.2,0.5,3.1,1.4l1.2-1.4c-1-1-2.3-1.7-4.3-1.7c-3.3,0-5.6,2.6-5.6,5.7v0C350.8,74.8,353.2,77.3,356.4,77.3"/>
<rect x="363" y="66.1" width="1.9" height="11"/>
<polygon points="367.8,77.1 376,77.1 376,75.4 369.8,75.4 369.8,72.4 375.3,72.4 375.3,70.7 369.8,70.7 369.8,67.9 376,67.9 
	376,66.1 367.8,66.1 "/>
<polygon points="378.3,77.1 380.2,77.1 380.2,69.3 386.3,77.1 387.9,77.1 387.9,66.1 386,66.1 386,73.7 380.1,66.1 378.3,66.1 "/>
<path d="M395.8,77.3c2.1,0,3.3-0.8,4.4-1.9l-1.2-1.3c-0.9,0.9-1.8,1.4-3.1,1.4c-2.1,0-3.6-1.7-3.6-3.9v0c0-2.1,1.5-3.9,3.6-3.9
	c1.3,0,2.2,0.5,3.1,1.4l1.2-1.4c-1-1-2.3-1.7-4.3-1.7c-3.3,0-5.6,2.6-5.6,5.7v0C390.2,74.8,392.6,77.3,395.8,77.3"/>
<polygon points="402.2,77.1 410.4,77.1 410.4,75.4 404.2,75.4 404.2,72.4 409.7,72.4 409.7,70.7 404.2,70.7 404.2,67.9 410.4,67.9 
	410.4,66.1 402.2,66.1 "/>
<path class="st0" d="M76.1,52.5c0.2,0.1,0.4-0.1,0.5-0.3l0.5-4.1c0-0.2-0.2-0.4-0.4-0.4h-1.8c-0.2,0-0.4-0.2-0.4-0.4V45
	c0-0.2,0.2-0.4,0.4-0.4h1.8c0.2,0,0.4-0.2,0.4-0.4l-0.6-4.1c0-0.2-0.3-0.4-0.5-0.3l-1.7,0.5c-0.2,0.1-0.5-0.1-0.5-0.3l-0.6-2.2
	c-0.1-0.2,0.1-0.5,0.3-0.5l1.7-0.5c0.2-0.1,0.3-0.3,0.3-0.5l-1.6-3.8c-0.1-0.2-0.4-0.3-0.6-0.2l-1.5,0.9c-0.2,0.1-0.5,0-0.6-0.2
	L70,31c-0.1-0.2,0-0.5,0.2-0.6l1.5-0.9c0.2-0.1,0.3-0.4,0.1-0.6l-2.5-3.2c-0.2-0.2-0.4-0.2-0.6,0L67.5,27c-0.2,0.2-0.4,0.2-0.6,0
	l-1.6-1.6c-0.2-0.2-0.2-0.4,0-0.6l1.2-1.2c0.2-0.2,0.2-0.4,0-0.6l-3.3-2.5c-0.2-0.1-0.4-0.1-0.6,0.1l-0.8,1.4
	c-0.1,0.2-0.4,0.3-0.6,0.2l-2-1.1c-0.2-0.1-0.3-0.4-0.2-0.6l0.8-1.4c0.1-0.2,0-0.4-0.2-0.5L55.8,17c-0.2-0.1-0.5,0-0.5,0.3l-0.4,1.6
	c-0.1,0.2-0.3,0.4-0.5,0.3l-2.3-0.6c-0.2-0.1-0.4-0.3-0.3-0.5l0.4-1.6c0.1-0.2-0.1-0.4-0.3-0.5l-4.1-0.5c-0.2,0-0.4,0.2-0.4,0.4v1.6
	c0,0.2-0.2,0.4-0.4,0.4h-2.3c-0.2,0-0.4-0.2-0.4-0.4v-1.6c0-0.2-0.2-0.4-0.4-0.4L39.7,16c-0.2,0-0.4,0.3-0.3,0.5l0.4,1.6
	c0.1,0.2-0.1,0.5-0.3,0.5l-2.3,0.6c-0.2,0.1-0.5-0.1-0.5-0.3l-0.4-1.6c-0.1-0.2-0.3-0.3-0.5-0.3L32,18.6c-0.2,0.1-0.3,0.3-0.2,0.5
	l0.8,1.4c0.1,0.2,0,0.5-0.2,0.6l-2,1.1c-0.2,0.1-0.5,0-0.6-0.2l-0.8-1.4c-0.1-0.2-0.4-0.3-0.6-0.1L25.3,23c-0.2,0.1-0.2,0.4,0,0.6
	l1.2,1.2c0.2,0.2,0.2,0.4,0,0.6L24.8,27c-0.2,0.2-0.4,0.2-0.6,0L23,25.8c-0.2-0.2-0.4-0.2-0.6,0L19.9,29c-0.1,0.2-0.1,0.4,0.1,0.6
	l1.5,0.9c0.2,0.1,0.3,0.4,0.2,0.6l-1.2,2c-0.1,0.2-0.4,0.3-0.6,0.2l-1.5-0.9c-0.2-0.1-0.5,0-0.6,0.2l-1.6,3.8
	c-0.1,0.2,0,0.4,0.3,0.5l1.7,0.5c0.2,0.1,0.4,0.3,0.3,0.5l-0.6,2.2c-0.1,0.2-0.3,0.4-0.5,0.3l-1.7-0.5c-0.2-0.1-0.4,0.1-0.5,0.3
	l-0.6,4.1c0,0.2,0.2,0.4,0.4,0.4h1.8c0.2,0,0.4,0.2,0.4,0.4v2.3c0,0.2-0.2,0.4-0.4,0.4H15c-0.2,0-0.4,0.2-0.4,0.4l0.5,4.1
	c0,0.2,0.3,0.4,0.5,0.3l1.8-0.5c0.2-0.1,0.5,0.1,0.5,0.3l0.6,2.2c0.1,0.2-0.1,0.5-0.3,0.5l-1.8,0.5c-0.2,0.1-0.3,0.3-0.3,0.5
	l1.6,3.8c0.1,0.2,0.3,0.3,0.5,0.2l1.7-1c0.2-0.1,0.5,0,0.6,0.2l1.2,2c0.1,0.2,0,0.5-0.2,0.6l-1.7,1c-0.2,0.1-0.3,0.4-0.1,0.6
	l2.5,3.3c0.1,0.2,0.4,0.2,0.6,0l1.4-1.4c0.2-0.2,0.4-0.2,0.6,0l1.6,1.6c0.2,0.2,0.2,0.4,0,0.6L25,68.8c-0.2,0.2-0.2,0.4,0,0.6
	l3.3,2.5c0.2,0.1,0.4,0.1,0.6-0.1l1-1.7c0.1-0.2,0.4-0.3,0.6-0.2l2,1.1c0.2,0.1,0.3,0.4,0.2,0.6l-1,1.7c-0.1,0.2,0,0.4,0.2,0.5
	l3.9,1.6c0.2,0.1,0.5,0,0.5-0.3l0.5-1.9c0.1-0.2,0.3-0.4,0.5-0.3l2.2,0.6c0.2,0.1,0.4,0.3,0.3,0.5l-0.5,1.9
	c-0.1,0.2,0.1,0.4,0.3,0.5l4.2,0.5c0.2,0,0.4-0.2,0.4-0.4v-2c0-0.2,0.2-0.4,0.4-0.4H47c0.2,0,0.4,0.2,0.4,0.4v2
	c0,0.2,0.2,0.4,0.4,0.4l4.2-0.5c0.2,0,0.4-0.3,0.3-0.5l-0.5-1.9c-0.1-0.2,0.1-0.5,0.3-0.5l2.3-0.6c0.2-0.1,0.5,0.1,0.5,0.3l0.5,1.9
	c0.1,0.2,0.3,0.3,0.5,0.3l3.9-1.6c0.2-0.1,0.3-0.3,0.2-0.5l-1-1.7c-0.1-0.2,0-0.5,0.2-0.6l2-1.1c0.2-0.1,0.5,0,0.6,0.2l1,1.7
	c0.1,0.2,0.4,0.3,0.6,0.1l3.3-2.5c0.2-0.1,0.2-0.4,0-0.6l-1.4-1.4c-0.2-0.2-0.2-0.4,0-0.6l1.6-1.6c0.2-0.2,0.4-0.2,0.6,0l1.4,1.4
	c0.2,0.2,0.4,0.2,0.6,0l2.5-3.3c0.1-0.2,0.1-0.4-0.1-0.6l-1.7-1c-0.2-0.1-0.3-0.4-0.2-0.6l1.2-2c0.1-0.2,0.4-0.3,0.6-0.2l1.7,1
	c0.2,0.1,0.5,0,0.5-0.2l1.6-3.8c0.1-0.2,0-0.4-0.3-0.5L73.5,55c-0.2-0.1-0.4-0.3-0.3-0.5l0.6-2.2c0.1-0.2,0.3-0.4,0.5-0.3L76.1,52.5
	z"/>
<path d="M66.9,46.3c0,11.5-9.4,20.8-21.1,20.8c-11.6,0-21.1-9.3-21.1-20.8c0-11.5,9.4-20.8,21.1-20.8C57.5,25.5,66.9,34.8,66.9,46.3
	"/>
<path class="st1" d="M66.3,46.3c0,11.1-9.2,20.1-20.4,20.1c-11.3,0-20.4-9-20.4-20.1c0-11.1,9.1-20.1,20.4-20.1
	C57.1,26.2,66.3,35.2,66.3,46.3"/>
<path class="st2" d="M65,46.3c0,10.5-8.6,18.9-19.2,18.9c-10.6,0-19.2-8.5-19.2-18.9c0-10.5,8.6-18.9,19.2-18.9
	C56.4,27.4,65,35.8,65,46.3"/>
<path class="st3" d="M58.6,46.3c0,7-5.7,12.6-12.8,12.6c-7.1,0-12.8-5.7-12.8-12.6c0-7,5.7-12.6,12.8-12.6
	C52.9,33.7,58.6,39.3,58.6,46.3"/>
<path class="st1" d="M44.8,38.5c0,0-0.3-0.2-0.4-0.3c0-0.1-0.3-0.2-0.4-0.3c-0.1-0.1-0.2-0.3-0.4-0.4c-0.2,0-0.2,0-0.3,0
	c-0.1,0-0.3,0-0.3,0.1c-0.1,0.1-0.2,0.1-0.3,0.1c-0.1,0-0.1,0-0.3,0.2c-0.2,0.2-0.3,0.2-0.2,0.3c0.1,0.1,0.3,0,0.4,0.1
	c0.1,0.1,0.1,0.2,0.2,0.3c0.1,0.1,0.2,0.1,0.1,0.2c-0.1,0.1-0.2,0-0.3,0.2c0,0.3,0,0.5,0,0.7c0,0.2,0,0.2,0.2,0.3
	c0.2,0,0.4-0.2,0.4,0c0,0.2,0.1,0.2,0.2,0.2c0.1,0,0.1,0.2,0,0.2c-0.1,0-0.3,0.1-0.3,0.3c0,0.2,0,0.2-0.2,0.3
	c-0.1,0.1-0.1,0.2-0.2,0.3c-0.1,0.2-0.4,0.2-0.4,0.4c0,0.2-0.3,0.2-0.4,0.5c-0.1,0.3-0.2,0.4-0.3,0.4c-0.1,0-0.4,0.1-0.4,0
	c-0.1-0.1-0.1-0.3-0.2-0.2c-0.2,0.2-0.3,0.3-0.4,0.4c-0.1,0.1-0.2,0.3,0.1,0.3c0.3,0.1,0.2,0.2,0.2,0.2l0.1,0.2l0.1,0.1l0.1,0.3
	l0.1,0.2l0,0.2l0,0.1h-0.1L41,44.6h-0.2l-0.1,0.1l-0.1,0l-0.2-0.1l-0.2,0.1l0,0.1l-0.2,0.2l0,0.2l0.1,0.1c0,0,0.1,0.2,0.3,0.2
	c0.1,0,0.3,0,0.4,0c0.1,0,0.1-0.1,0.1-0.1l0.1-0.1l0.2,0l0.1,0c0,0-0.1,0.1-0.1,0.1c0,0-0.1,0.1-0.1,0.1l-0.1,0.2c0,0-0.1-0.1-0.1,0
	c0,0-0.1,0.1-0.1,0.1s-0.1,0-0.1,0c0,0-0.1,0-0.1,0l-0.1,0l-0.1,0v-0.1h-0.1c0,0,0,0,0.1,0.2c0.1,0.1,0.2,0.2,0.3,0.4
	c0.1,0.1,0.1,0.1,0.2,0.3c0.1,0.2,0.3,0.2,0.4,0.2c0,0,0.4-0.1,0.5-0.2c0.1-0.1,0.3-0.3,0.3-0.3c-0.1,0-0.2-0.1-0.2-0.2
	c0,0,0.2-0.1,0.2-0.2c0.1-0.1,0.1-0.1,0.1,0c0,0,0.1,0.1,0.1,0.1s-0.1,0-0.1,0c0,0-0.1,0,0,0.1c0,0.2,0,0,0,0.2
	c0,0.2,0.1,0.3,0.1,0.3c0,0,0,0.5,0,0.7c0,0.2,0,0.4,0,0.5c0,0.1,0.1,0.6,0.1,0.7c0,0.1,0.1,0.7,0.1,0.9c0,0.2,0.1,0.4,0.2,0.6
	c0.1,0.2,0.2,0.4,0.3,0.6c0,0.2,0.1,0.3,0.1,0.5c0,0.2,0.1,0.4,0.3,0.7c0.1,0.3,0.3,0.2,0.3,0.4c0,0.2,0.2,0.6,0.2,0.8
	c0,0.2-0.1,0.2,0.1,0.3c0.1,0.1,0.1,0.3,0.2,0.4c0.1,0.1,0.3,0.3,0.3,0.3c0,0,0.1,0.1,0.2,0c0.1-0.1,0.2-0.1,0.2-0.2
	c0-0.1,0.1-0.2,0.1-0.3c0-0.1,0.3-0.1,0.4-0.2c0.2,0,0.1,0,0.1,0s-0.1-0.2,0-0.3c0.1-0.1,0.1-0.2,0.1-0.2c0-0.1,0.2-0.1,0.2-0.1
	c0.1,0,0.1,0,0.1-0.1c0-0.1,0-0.7,0-0.7c0,0,0-0.2,0.1-0.3c0.1-0.1,0.1-0.2,0.2-0.3c0-0.2,0-0.4,0-0.5c0-0.1,0-0.3,0-0.4
	c0-0.1,0-0.3,0-0.4c0-0.1,0.1-0.4,0.2-0.4c0.1-0.1,0.2-0.1,0.2,0c0,0.1,0,0.1,0.1,0c0.1-0.1,0.1-0.3,0.2-0.3c0.1,0,0.1,0,0.3,0
	c0.1,0,0.2-0.2,0.3-0.2c0,0-0.1-0.1,0-0.1c0.1-0.1,0.2-0.1,0.3-0.2c0,0,0.3-0.2,0.3-0.2c0,0,0-0.2,0.1-0.2c0.1,0,0.1-0.1,0.2-0.1
	c0.1-0.1,0-0.1,0.2-0.3c0.2-0.2,0.4-0.4,0.5-0.5c0.1-0.1,0.4-0.2,0.5-0.2c0,0,0-0.1,0.1-0.2c0.1-0.1,0-0.1,0.1-0.2
	c0.1-0.1,0.2,0,0.1-0.2c-0.1-0.1-0.3-0.2-0.1-0.3c0.2-0.1,0.3-0.2,0.4-0.2c0.1,0,0,0,0.1-0.1c0.1-0.1,0.1-0.2,0.1-0.1
	c0,0.1,0,0.1,0,0.2c0,0.1,0.1,0.1,0.2,0c0.1,0,0.1,0.1,0.1,0.1c0,0,0.2,0,0.2-0.1c0-0.1-0.1-0.5-0.1-0.6c0-0.1-0.1-0.2-0.1-0.2
	c0,0-0.1-0.1-0.1-0.1c0-0.1-0.1,0-0.1-0.2c0-0.1,0.1-0.2,0-0.3c-0.1-0.1-0.5-0.1-0.4-0.2c0.1-0.1,0.1,0,0.1,0c0-0.1,0-0.1,0.1-0.1
	c0.1,0,0.1-0.2,0.2-0.2c0.1,0,0.2,0,0-0.1c-0.2-0.1-0.4-0.2-0.4-0.2c0,0,0-0.1,0.1-0.2c0.1,0,0.1-0.1,0.2-0.1c0,0,0.3-0.2,0.3-0.1
	c0,0.1,0,0,0,0.1c0,0.1,0.1,0.1,0.2,0.1c0.1,0,0.1-0.2,0.1-0.1c0,0.1,0.1,0.1,0.1,0.2c0,0.1,0,0.3,0.1,0.4c0,0,0.1,0,0.2,0
	c0.1,0,0.1,0,0.2,0c0.1,0,0.2-0.1,0.3-0.1c0,0,0,0,0.1,0c0.1,0,0.1,0.1,0.2,0.1c0.1,0,0.2,0,0.3,0c0.1,0,0.1,0.1,0.1,0.1
	c0,0-0.1,0-0.1,0c0,0.1,0,0.1,0,0.1c0,0.1-0.1,0.2-0.1,0.2c-0.1,0.1-0.1,0-0.2,0.1c-0.1,0.1-0.2,0.1-0.2,0.2c0,0,0,0,0,0.2
	c0.1,0.2,0.1,0.2,0.1,0.3c0,0.1,0,0.1,0.1,0.1c0-0.1,0.1-0.2,0.1-0.3c0-0.1,0-0.2,0.1-0.2c0.1,0,0.1,0,0.1,0.1c0,0.1,0,0.2,0,0.3
	c0.1,0.1,0.1,0.2,0.1,0.3c0,0.1,0,0.2,0.1,0.3c0,0,0-0.1,0.1-0.1s0.2,0,0.2-0.1c0-0.1-0.1-0.3-0.1-0.4c0-0.1,0.1-0.1,0.1-0.2
	c0-0.1-0.1-0.4,0-0.4c0,0,0.1-0.1,0.2-0.1c0.1,0,0.2,0.1,0.2,0c0-0.1,0.1-0.4,0.1-0.4c0-0.1,0.1-0.1,0.1-0.2c0-0.1-0.1,0-0.1-0.1
	c0-0.1,0.2-0.2,0.2-0.2c0,0-0.1-0.1-0.1-0.1c0-0.1,0.1-0.1,0.1-0.1s0,0,0-0.1c0,0,0-0.1,0-0.1c0,0,0,0,0-0.1c0,0,0-0.1,0-0.1
	c0.1,0,0.2-0.1,0.2-0.2c0,0,0.2-0.2,0.2-0.2c0,0,0.3,0,0.3,0c0,0,0.1,0.1,0.1,0.1s0.1,0.1,0.1,0c0-0.1-0.1-0.2-0.1-0.2s0-0.1,0-0.2
	c0-0.1,0.1-0.1,0.1-0.2c0-0.1-0.1-0.1-0.1-0.2c0,0-0.1,0-0.1,0l-0.1,0L54.2,42l-0.1,0c0,0-0.1,0-0.1,0c0,0,0.2-0.2,0.2-0.2
	s-0.1-0.1-0.1-0.2c0,0,0-0.1,0-0.1L54,41.7c0,0-0.1,0-0.1,0c0,0,0.2-0.2,0.1-0.2c0,0-0.2-0.1-0.2-0.1c0,0-0.1,0.1-0.1,0.2
	c0,0.1-0.1,0.1-0.1,0.1s-0.1,0-0.1,0c0,0-0.2-0.1-0.3,0c0,0-0.1-0.1-0.1-0.1c0,0-0.1,0.1-0.1,0.2c-0.1,0.1-0.2,0.2-0.2,0.2
	c0,0-0.1,0-0.2,0.1c-0.1,0.1-0.1,0.2-0.1,0.2c0,0-0.1,0-0.2,0.1c0,0.1-0.1,0-0.1,0.1c0,0.1,0,0.1,0,0.1c-0.1,0-0.2,0-0.3,0
	c-0.1,0-0.1-0.1-0.1,0c0,0.1,0,0.1,0.1,0.2C52,42.8,52,42.9,52,43c0,0.1,0.1,0.1,0,0.1c-0.1,0-0.4,0.1-0.5,0.1h-0.2
	c-0.1,0-0.1-0.1-0.1-0.1c0,0-0.1,0.1-0.1,0.1c0,0-0.1,0-0.1,0c-0.1,0-0.2,0-0.3,0c-0.1,0-0.2,0-0.2-0.1c0-0.1-0.1-0.1-0.1-0.2
	c0-0.1,0-0.2,0-0.3c0-0.1,0-0.1,0-0.1c0,0-0.1,0-0.2,0c0,0-0.1,0.1-0.1,0.1c0,0.1,0,0.1,0,0.2c0,0.1,0,0.1,0,0.3
	c0,0.1,0.1,0.2,0.1,0.2c0,0,0,0.1-0.1,0.1c0,0-0.1,0-0.1,0c0,0-0.2,0-0.3,0c-0.1,0-0.1-0.1-0.1-0.1l-0.1,0.1l-0.3-0.1
	c0,0-0.1,0-0.1,0c0,0,0,0-0.1,0c0,0,0-0.1,0-0.1c0-0.1,0-0.2,0-0.1c0,0-0.1,0.2-0.2,0.2c-0.2-0.1-0.3-0.1-0.3-0.2c0,0,0.1-0.1,0-0.1
	C48.1,43,48.1,43,47.9,43c-0.1,0-0.2,0-0.3,0c0,0,0,0.1-0.1,0c-0.1,0-0.3-0.1-0.3-0.1s0.1-0.1-0.1-0.1c-0.1,0-0.1,0-0.1,0
	c0,0-0.1-0.1-0.2-0.1h-0.1c0,0-0.2-0.1-0.2-0.1c0-0.1-0.1-0.2-0.2-0.2c0,0-0.2-0.1-0.2-0.1s-0.1,0-0.1-0.1c-0.1,0-0.1,0-0.1-0.1
	c0-0.1-0.1-0.1,0-0.1c0.1-0.1,0,0,0.1-0.1c0.1-0.1,0-0.1,0-0.2c0-0.1,0.3-0.2,0.3-0.2c0,0,0.1-0.1,0.1-0.2c0,0-0.1-0.1-0.2-0.1
	c-0.1-0.1-0.2-0.1-0.2-0.1s-0.1-0.1-0.2-0.2c0,0-0.1,0.1-0.2,0c-0.1-0.1-0.2-0.3-0.2-0.3c0,0-0.1,0.1-0.1,0.1c0,0,0-0.2,0-0.2
	c0,0-0.1-0.1-0.1-0.2c0-0.1,0-0.1,0-0.1c0,0-0.1-0.2-0.1-0.2s0.1-0.1,0.1,0c0,0,0,0.1,0,0.1l0.2,0c0,0,0.1,0,0.1,0
	c0.1,0,0.1-0.1,0.1-0.1c0,0-0.1-0.1-0.1-0.2c0-0.1,0-0.1,0-0.1l-0.1-0.1c0,0-0.1,0.1-0.1,0c0,0-0.1-0.1-0.1-0.2c0,0,0,0,0-0.1
	c0-0.1-0.1-0.1,0-0.1c0.1,0,0.2,0,0.2,0c0.1,0,0.1-0.1,0.1-0.2c0-0.1,0-0.1,0-0.1c0,0,0.1,0,0.1,0c0.1,0,0.1-0.2,0.1-0.2
	s0-0.2,0.1-0.2c0-0.1,0-0.1,0-0.1s-0.1,0-0.1-0.1c0,0,0-0.1-0.1-0.1c0,0-0.1,0-0.1,0c0,0-0.1,0-0.1-0.1c0,0-0.1,0-0.1,0
	c0,0,0,0.1-0.1,0.1c0,0-0.1,0-0.2,0c-0.1,0-0.1,0-0.1,0.1c0,0-0.1,0-0.1,0.1l0,0C45,38.4,44.9,38.4,44.8,38.5
	C44.9,38.5,44.9,38.5,44.8,38.5C44.9,38.5,44.8,38.5,44.8,38.5"/>
<path class="st1" d="M56.2,43.7H35.5c0,0.2-0.1,0.4-0.1,0.6h20.9C56.3,44.1,56.2,43.9,56.2,43.7 M55.7,42.5H35.9
	c-0.1,0.2-0.1,0.4-0.2,0.6H56C55.9,42.8,55.8,42.6,55.7,42.5z M53.2,38.7H38.5c-0.2,0.2-0.4,0.4-0.6,0.6h15.8
	C53.6,39.1,53.4,38.9,53.2,38.7z M55.1,41.2H36.5c-0.1,0.2-0.2,0.4-0.3,0.6h19.2C55.4,41.6,55.3,41.4,55.1,41.2z M48.7,36.2h-5.8
	c-0.5,0.1-1.1,0.3-1.6,0.6h8.9C49.8,36.5,49.3,36.3,48.7,36.2z M51.6,37.4H40.1c-0.3,0.2-0.6,0.4-0.8,0.6h13.1
	C52.1,37.8,51.8,37.6,51.6,37.4z M54.3,39.9h-17c-0.1,0.2-0.3,0.4-0.4,0.6h17.8C54.6,40.3,54.5,40.1,54.3,39.9z"/>
<path class="st1" d="M53.9,67c0,0-2.8,1.2-1.8,2.8C52.1,69.8,54,69.8,53.9,67"/>
<path class="st1" d="M55.2,71.1c0,0-3,0.7-3.2-1.1C52,69.9,53.5,68.8,55.2,71.1"/>
<path class="st1" d="M49.1,68.2c0,0-3.1,0.7-2.3,2.4C46.8,70.6,48.7,71,49.1,68.2"/>
<path class="st1" d="M49.7,72.4c0,0-3.1,0.2-3-1.7C46.7,70.8,48.4,70,49.7,72.4"/>
<path class="st1" d="M58.6,64.8c0,0-2.6,1.5-1.4,2.8C57.3,67.7,59.1,67.4,58.6,64.8"/>
<path class="st1" d="M60.5,68.5c0,0-2.8,1.1-3.3-0.6C57.2,67.9,58.5,66.6,60.5,68.5"/>
<path class="st1" d="M62.3,61.9c0,0-2,2-0.7,2.9C61.7,64.9,63.2,64.2,62.3,61.9"/>
<path class="st1" d="M64.6,64.9c0,0-2.2,1.6-2.9,0.1C61.7,65,62.6,63.6,64.6,64.9"/>
<path class="st1" d="M65,58.6c0,0-1.3,2.2,0.1,2.8C65.1,61.5,66.4,60.5,65,58.6"/>
<path class="st1" d="M67.7,60.9c0,0-1.7,1.9-2.6,0.7C65.1,61.6,65.6,60.1,67.7,60.9"/>
<path class="st1" d="M67.2,55c0,0-1,2.3,0.4,2.7C67.6,57.7,68.7,56.6,67.2,55"/>
<path class="st1" d="M70,56.8c0,0-1.4,2.1-2.4,1C67.6,57.8,67.9,56.3,70,56.8"/>
<path class="st1" d="M68.4,51.6c0,0-0.7,2.4,0.7,2.6C69.1,54.2,70,53.1,68.4,51.6"/>
<path class="st1" d="M71.4,53.1c0,0-1.1,2.2-2.3,1.3C69.1,54.4,69.2,52.8,71.4,53.1"/>
<path class="st1" d="M68.8,48.1c0,0-0.2,2.5,1.3,2.4C70.1,50.5,70.8,49.2,68.8,48.1"/>
<path class="st1" d="M72.1,48.9c0,0-0.6,2.4-1.9,1.7C70.2,50.6,69.9,49.1,72.1,48.9"/>
<path class="st1" d="M68.9,44.8c0,0,0.2,2.5,1.6,2.3C70.5,47.1,70.9,45.7,68.9,44.8"/>
<path class="st1" d="M72.1,45.2c0,0-0.2,2.5-1.5,2C70.6,47.2,70.1,45.7,72.1,45.2"/>
<path class="st1" d="M68.8,41.6c0,0,0.2,2.6,1.4,2.3C70.2,44,70.6,42.5,68.8,41.6"/>
<path class="st1" d="M71.7,41.9c0,0-0.2,2.6-1.4,2.1C70.3,44.1,69.9,42.5,71.7,41.9"/>
<path class="st1" d="M68,38.7c0,0,0.7,2.6,1.8,2.1C69.8,40.7,69.9,39.2,68,38.7"/>
<path class="st1" d="M70.9,38.5c0,0,0.3,2.6-1,2.3C69.9,40.8,69.2,39.3,70.9,38.5"/>
<path class="st1" d="M66.6,35.6c0,0,1.2,2.5,2.1,1.7C68.7,37.4,68.4,35.8,66.6,35.6"/>
<path class="st1" d="M69.1,34.8c0,0,0.9,2.6-0.3,2.6C68.8,37.4,67.9,36.1,69.1,34.8"/>
<path class="st1" d="M64.9,32.8c0,0,1.6,2.1,2.2,1.2C67.1,34,66.5,32.5,64.9,32.8"/>
<path class="st1" d="M66.9,31.5c0,0,1.4,2.3,0.4,2.5C67.2,34,66.1,32.9,66.9,31.5"/>
<path class="st1" d="M63,30.2c0,0,1.7,1.9,2.1,0.9C65.1,31.1,64.3,29.8,63,30.2"/>
<path class="st1" d="M64.5,28.7c0,0,1.5,2.1,0.7,2.4C65.2,31.1,64,30.2,64.5,28.7"/>
<path class="st1" d="M61,28.1c0,0,1.8,1.6,1.9,0.6C62.9,28.7,62,27.5,61,28.1"/>
<path class="st1" d="M59.8,26.6c0,0,1.6,1.7,1.9,0.7C61.7,27.4,61,26.1,59.8,26.6"/>
<path class="st1" d="M62,26.5c0,0,1.6,1.8,1,2.3C63,28.8,61.9,28,62,26.5"/>
<path class="st1" d="M45.3,70.6c0-0.3,0.3-0.6,0.6-0.6c0.3,0,0.6,0.3,0.6,0.6c0,0.3-0.3,0.6-0.6,0.6C45.6,71.2,45.3,71,45.3,70.6"/>
<path class="st1" d="M37.7,67c0,0,2.8,1.2,1.8,2.8C39.5,69.8,37.6,69.8,37.7,67"/>
<path class="st1" d="M36.4,71.1c0,0,3,0.7,3.2-1.1C39.6,69.9,38.1,68.8,36.4,71.1"/>
<path class="st1" d="M42.5,68.2c0,0,3.1,0.7,2.3,2.4C44.9,70.6,42.9,71,42.5,68.2"/>
<path class="st1" d="M42,72.4c0,0,3.1,0.2,3-1.7C45,70.8,43.2,70,42,72.4"/>
<path class="st1" d="M33,64.8c0,0,2.6,1.5,1.4,2.8C34.4,67.7,32.5,67.4,33,64.8"/>
<path class="st1" d="M31.2,68.5c0,0,2.8,1.1,3.3-0.6C34.4,67.9,33.1,66.6,31.2,68.5"/>
<path class="st1" d="M29.3,61.9c0,0,2,2,0.7,2.9C30,64.9,28.4,64.2,29.3,61.9"/>
<path class="st1" d="M27.1,64.9c0,0,2.2,1.6,2.9,0.1C30,65,29.1,63.6,27.1,64.9"/>
<path class="st1" d="M26.6,58.6c0,0,1.3,2.2-0.1,2.8C26.5,61.5,25.3,60.5,26.6,58.6"/>
<path class="st1" d="M23.9,60.9c0,0,1.7,1.9,2.6,0.7C26.5,61.6,26,60.1,23.9,60.9"/>
<path class="st1" d="M24.5,55c0,0,1,2.3-0.4,2.7C24.1,57.7,23,56.6,24.5,55"/>
<path class="st1" d="M21.6,56.8c0,0,1.4,2.1,2.4,1C24,57.8,23.7,56.3,21.6,56.8"/>
<path class="st1" d="M23.3,51.6c0,0,0.7,2.4-0.7,2.6C22.6,54.2,21.6,53.1,23.3,51.6"/>
<path class="st1" d="M20.2,53.1c0,0,1.1,2.2,2.3,1.3C22.5,54.4,22.4,52.8,20.2,53.1"/>
<path class="st1" d="M22.8,48.1c0,0,0.2,2.5-1.3,2.4C21.5,50.5,20.9,49.2,22.8,48.1"/>
<path class="st1" d="M19.5,48.9c0,0,0.6,2.4,1.9,1.7C21.5,50.6,21.7,49.1,19.5,48.9"/>
<path class="st1" d="M22.7,44.8c0,0-0.2,2.5-1.6,2.3C21.1,47.1,20.7,45.7,22.7,44.8"/>
<path class="st1" d="M19.5,45.2c0,0,0.2,2.5,1.5,2C21,47.2,21.5,45.7,19.5,45.2"/>
<path class="st1" d="M22.8,41.6c0,0-0.2,2.6-1.4,2.3C21.4,44,21,42.5,22.8,41.6"/>
<path class="st1" d="M19.9,41.9c0,0,0.2,2.6,1.4,2.1C21.3,44.1,21.7,42.5,19.9,41.9"/>
<path class="st1" d="M23.7,38.7c0,0-0.7,2.6-1.8,2.1C21.9,40.7,21.8,39.2,23.7,38.7"/>
<path class="st1" d="M20.8,38.5c0,0-0.3,2.6,1,2.3C21.7,40.8,22.4,39.3,20.8,38.5"/>
<path class="st1" d="M25.1,35.6c0,0-1.2,2.5-2.1,1.7C22.9,37.4,23.2,35.8,25.1,35.6"/>
<path class="st1" d="M22.5,34.8c0,0-0.9,2.6,0.3,2.6C22.8,37.4,23.8,36.1,22.5,34.8"/>
<path class="st1" d="M26.7,32.8c0,0-1.6,2.1-2.2,1.2C24.5,34,25.1,32.5,26.7,32.8"/>
<path class="st1" d="M24.8,31.5c0,0-1.4,2.3-0.4,2.5C24.4,34,25.5,32.9,24.8,31.5"/>
<path class="st1" d="M28.6,30.2c0,0-1.7,1.9-2.1,0.9C26.6,31.1,27.3,29.8,28.6,30.2"/>
<path class="st1" d="M27.1,28.7c0,0-1.5,2.1-0.7,2.4C26.5,31.1,27.6,30.2,27.1,28.7"/>
<path class="st1" d="M30.7,28.1c0,0-1.8,1.6-1.9,0.6C28.7,28.7,29.6,27.5,30.7,28.1"/>
<path class="st1" d="M31.8,26.6c0,0-1.6,1.7-1.9,0.7C29.9,27.4,30.7,26.1,31.8,26.6"/>
<path class="st1" d="M29.6,26.5c0,0-1.6,1.8-1,2.3C28.6,28.8,29.8,28,29.6,26.5"/>
<path class="st1" d="M46.4,70.6c0-0.3-0.3-0.6-0.6-0.6c-0.3,0-0.6,0.3-0.6,0.6c0,0.3,0.3,0.6,0.6,0.6C46.1,71.2,46.4,71,46.4,70.6"
	/>
<polygon class="st1" points="40.8,54.7 42,55.3 41.9,55.6 41,55.1 40.9,55.5 41.6,55.9 41.5,56.1 40.7,55.7 40.5,56.1 41.4,56.5 
	41.2,56.8 40.1,56.2 "/>
<path class="st1" d="M42,56.7c0,0.1,0.1,0.2,0.2,0.3c0.1,0,0.2,0,0.3-0.1c0-0.1-0.1-0.2-0.3-0.3c-0.2-0.1-0.3-0.2-0.3-0.4
	c0.1-0.3,0.4-0.3,0.7-0.2c0.3,0.1,0.5,0.3,0.4,0.6l-0.3-0.1c0-0.1-0.1-0.2-0.2-0.2c-0.1,0-0.2,0-0.2,0c0,0.1,0.1,0.2,0.3,0.3
	c0.2,0.1,0.3,0.2,0.3,0.5c-0.1,0.3-0.4,0.3-0.7,0.2c-0.3-0.1-0.5-0.3-0.4-0.6L42,56.7z"/>
<path class="st1" d="M43.7,56.3l0.3,0.1l-0.1,0.2l-0.2-0.1l-0.1,0.6c0,0.1,0,0.1,0.1,0.2c0,0,0.1,0,0.1,0l-0.1,0.3
	c-0.1,0-0.1,0-0.2,0c-0.2,0-0.4-0.1-0.3-0.4l0.2-0.7l-0.2,0l0.1-0.2l0.2,0l0.1-0.4l0.3,0.1L43.7,56.3z"/>
<path class="st1" d="M44.8,57.5L44.8,57.5c-0.1,0.1-0.2,0.2-0.4,0.1c-0.4,0-0.5-0.4-0.5-0.7c0-0.3,0.3-0.6,0.6-0.6
	c0.1,0,0.3,0.1,0.4,0.2h0L45,56l0.3,0l-0.2,1.7l-0.3,0L44.8,57.5z M44.6,56.6c-0.2,0-0.3,0.2-0.3,0.4c0,0.2,0,0.4,0.3,0.4
	c0.2,0,0.3-0.2,0.3-0.4C44.9,56.9,44.9,56.7,44.6,56.6z"/>
<path class="st1" d="M47.2,57.7l-0.3,0l-0.1-1.1l-0.4,0l0-0.3c0.2,0,0.5-0.1,0.5-0.4l0.3,0L47.2,57.7z"/>
<path class="st1" d="M47.9,57.1c0,0.1,0.2,0.2,0.3,0.2c0.2-0.1,0.2-0.4,0.2-0.6l0,0c-0.1,0.1-0.2,0.2-0.3,0.3c-0.1,0-0.3,0-0.4-0.1
	c-0.1-0.1-0.2-0.2-0.2-0.3c-0.1-0.3,0.1-0.7,0.5-0.7c0.5-0.1,0.7,0.3,0.8,0.7c0.1,0.4,0,0.9-0.5,1c-0.3,0.1-0.5-0.1-0.6-0.3
	L47.9,57.1z M48.3,56.3c0-0.2-0.2-0.3-0.3-0.3c-0.2,0-0.2,0.2-0.2,0.4c0,0.2,0.1,0.3,0.3,0.3C48.3,56.7,48.3,56.5,48.3,56.3z"/>
<path class="st1" d="M49.2,55.5c0.4-0.1,0.6,0.1,0.7,0.2c0.1,0.2,0,0.3-0.1,0.4l0,0c0.2,0,0.4,0.1,0.4,0.3c0.1,0.3-0.1,0.6-0.4,0.7
	c-0.3,0.1-0.7,0.1-0.8-0.3c-0.1-0.2,0-0.4,0.2-0.5h0c-0.2,0-0.3-0.1-0.4-0.2C48.7,55.8,48.9,55.5,49.2,55.5 M49.4,56.1
	c0.1,0,0.2-0.2,0.2-0.3c0-0.1-0.1-0.2-0.3-0.1c-0.1,0-0.2,0.2-0.2,0.3C49.1,56.1,49.3,56.2,49.4,56.1z M49.7,56.9
	c0.2-0.1,0.2-0.2,0.2-0.4c-0.1-0.2-0.2-0.2-0.4-0.2c-0.2,0.1-0.3,0.2-0.2,0.4C49.3,56.9,49.5,56.9,49.7,56.9z"/>
<path class="st1" d="M51,55l-0.6,0.3l0.1,0.4l0,0c0-0.1,0.1-0.2,0.2-0.3c0.3-0.2,0.6,0,0.7,0.3c0.2,0.3,0,0.7-0.3,0.8
	c-0.3,0.1-0.6,0.1-0.8-0.2l0.3-0.2c0.1,0.1,0.2,0.2,0.4,0.1c0.2-0.1,0.2-0.3,0.1-0.4c-0.1-0.2-0.2-0.2-0.4-0.1
	c-0.1,0.1-0.1,0.1-0.2,0.2l-0.3,0.1L50,55.2l0.9-0.4L51,55z"/>
<polygon class="st1" points="39.4,59.3 39.9,59.5 38.8,61.9 38.3,61.7 38.7,60.7 38.2,60.5 37.7,61.4 37.2,61.2 38.4,58.8 38.9,59 
	38.4,60.1 38.9,60.3 "/>
<rect x="35.7" y="59.2" transform="matrix(0.541 -0.841 0.841 0.541 -32.9851 58.4295)" class="st1" width="2.7" height="0.5"/>
<path class="st1" d="M37.1,57.9l-1.7,2l-0.6-0.5l0.5-1.4c0.1-0.2,0.1-0.3,0.2-0.5c0.1-0.1,0.1-0.3,0.2-0.4c-0.1,0.1-0.1,0.2-0.2,0.3
	c-0.1,0.1-0.2,0.2-0.3,0.3l-1,1.2l-0.4-0.3l1.7-2l0.6,0.5l-0.5,1.5c0,0.1-0.1,0.2-0.2,0.4c-0.1,0.1-0.1,0.3-0.2,0.5
	c0.1-0.1,0.2-0.3,0.3-0.4c0.1-0.1,0.1-0.2,0.2-0.3l1-1.2L37.1,57.9z"/>
<path class="st1" d="M33.3,58l-0.6-0.7c-0.2-0.3-0.3-0.5-0.3-0.7c0.1-0.2,0.3-0.5,0.6-0.8c0.4-0.3,0.7-0.5,0.9-0.5
	c0.2,0,0.5,0.1,0.7,0.3l0.6,0.7L33.3,58z M33.2,57.3l1.4-1.2l-0.2-0.2c-0.1-0.1-0.2-0.2-0.4-0.2c-0.1,0-0.3,0.2-0.6,0.4
	c-0.3,0.3-0.4,0.4-0.5,0.6c0,0.1,0,0.3,0.1,0.4L33.2,57.3z"/>
<path class="st1" d="M30.6,54.3l1.5-0.8c0.3-0.2,0.6-0.3,0.8-0.2c0.2,0,0.4,0.2,0.6,0.5c0.2,0.3,0.2,0.5,0.1,0.7
	c-0.1,0.2-0.2,0.4-0.5,0.6l-1.5,0.9l-0.3-0.5l1.4-0.8c0.3-0.2,0.4-0.3,0.5-0.4c0-0.1,0-0.2,0-0.3c-0.1-0.1-0.2-0.2-0.3-0.2
	c-0.1,0-0.3,0.1-0.5,0.2l-1.4,0.8L30.6,54.3z"/>
<path class="st1" d="M31.9,52.9l-0.2-0.5l0.1,0c0.1,0,0.2-0.1,0.3-0.2c0-0.1,0-0.1,0-0.2c0-0.1-0.1-0.1-0.1-0.2c-0.1,0-0.1,0-0.2,0
	c-0.1,0-0.2,0.2-0.3,0.5c0,0,0,0,0,0c0,0.1-0.1,0.3-0.1,0.3c0,0.1,0,0.2-0.1,0.2c0,0.1-0.1,0.2-0.2,0.3c-0.1,0.1-0.1,0.1-0.3,0.2
	c-0.2,0.1-0.4,0.1-0.6,0c-0.2-0.1-0.3-0.3-0.4-0.5c-0.1-0.2-0.1-0.5,0-0.6c0.1-0.2,0.2-0.3,0.4-0.4l0.1,0l0.2,0.5l0,0
	c-0.1,0-0.2,0.1-0.2,0.2c0,0.1,0,0.1,0,0.2c0,0.1,0.1,0.1,0.1,0.2c0.1,0,0.1,0,0.2,0c0.1-0.1,0.2-0.3,0.3-0.6c0-0.1,0-0.2,0-0.2
	c0-0.2,0.1-0.4,0.2-0.5c0.1-0.1,0.2-0.2,0.3-0.2c0.2-0.1,0.5-0.1,0.6,0c0.2,0.1,0.3,0.3,0.4,0.6c0.1,0.3,0.1,0.5,0,0.6
	C32.4,52.7,32.2,52.8,31.9,52.9C32,52.9,32,52.9,31.9,52.9C31.9,52.9,31.9,52.9,31.9,52.9"/>
<polygon class="st1" points="31.8,50.2 29.6,50.8 29.8,51.4 29.4,51.5 28.9,49.8 29.3,49.7 29.5,50.3 31.6,49.7 "/>
<path class="st1" d="M31.3,47.6l-0.6,0.2l0.1,0.8l0.6,0.1l0.1,0.6l-2.7-0.4l-0.1-0.7l2.6-1.1L31.3,47.6z M30.4,48.6L30.3,48
	l-1.1,0.4L30.4,48.6z"/>
<path class="st1" d="M31.2,46.8l-2.7-0.1l0-0.7l1.4-0.5c0.2-0.1,0.3-0.1,0.5-0.1c0.2,0,0.3-0.1,0.5-0.1c-0.1,0-0.2,0-0.4,0
	c-0.1,0-0.3,0-0.4,0l-1.5,0l0-0.5l2.7,0.1l0,0.7L29.8,46c-0.1,0-0.2,0.1-0.4,0.1c-0.2,0-0.3,0.1-0.5,0.1c0.2,0,0.3,0,0.4,0
	c0.1,0,0.2,0,0.3,0l1.6,0L31.2,46.8z"/>
<rect x="30" y="41.5" transform="matrix(0.2306 -0.973 0.973 0.2306 -18.3841 62.4375)" class="st1" width="0.5" height="2.7"/>
<path class="st1" d="M31.8,42.4l-2.5-0.8l0.2-0.7l1.5,0c0.2,0,0.3,0,0.5,0c0.2,0,0.3,0,0.5,0c-0.1,0-0.2-0.1-0.4-0.1
	c-0.1,0-0.3-0.1-0.4-0.1l-1.5-0.5l0.2-0.5l2.5,0.8l-0.2,0.7l-1.6,0.1c-0.1,0-0.3,0-0.4,0c-0.2,0-0.3,0-0.5,0c0.2,0,0.3,0.1,0.4,0.1
	c0.1,0,0.2,0.1,0.3,0.1l1.5,0.5L31.8,42.4z"/>
<path class="st1" d="M31.9,39.8l0.3-0.5l0.1,0c0.1,0.1,0.2,0.1,0.3,0.1c0.1,0,0.1-0.1,0.2-0.2c0-0.1,0-0.2,0-0.2
	c0-0.1-0.1-0.1-0.2-0.2c-0.1-0.1-0.3,0-0.5,0.1c0,0,0,0,0,0c-0.1,0.1-0.2,0.1-0.3,0.2c-0.1,0-0.1,0.1-0.2,0.1
	c-0.1,0-0.2,0.1-0.3,0.1c-0.1,0-0.2,0-0.3-0.1c-0.2-0.1-0.3-0.3-0.4-0.4c0-0.2,0-0.4,0.1-0.6c0.1-0.2,0.3-0.4,0.4-0.5
	c0.2-0.1,0.4,0,0.6,0.1l0.1,0l-0.3,0.5l0,0c-0.1-0.1-0.2-0.1-0.3-0.1c-0.1,0-0.1,0.1-0.2,0.1c0,0.1,0,0.1,0,0.2
	c0,0.1,0.1,0.1,0.1,0.2c0.1,0.1,0.3,0,0.6-0.2c0.1,0,0.1-0.1,0.2-0.1c0.2-0.1,0.3-0.2,0.5-0.2c0.1,0,0.2,0,0.4,0.1
	c0.2,0.1,0.4,0.3,0.4,0.5c0,0.2,0,0.4-0.1,0.7c-0.1,0.2-0.3,0.4-0.4,0.5C32.4,40,32.2,40,31.9,39.8C31.9,39.9,31.9,39.8,31.9,39.8
	C31.9,39.8,31.9,39.8,31.9,39.8"/>
<polygon class="st1" points="33.9,38 32.1,36.7 31.7,37.2 31.4,36.9 32.4,35.5 32.8,35.7 32.4,36.2 34.2,37.5 "/>
<rect x="33.7" y="34.4" transform="matrix(0.6649 -0.7469 0.7469 0.6649 -15.334 37.3633)" class="st1" width="0.5" height="2.7"/>
<polygon class="st1" points="35.8,35.8 34.3,34.2 33.8,34.6 33.5,34.3 34.8,33.1 35.1,33.4 34.7,33.8 36.2,35.4 "/>
<path class="st1" d="M36.9,31.6l1,1.4c0.2,0.3,0.3,0.6,0.3,0.8c0,0.2-0.2,0.4-0.4,0.6c-0.3,0.2-0.5,0.2-0.7,0.2
	c-0.2,0-0.4-0.2-0.6-0.5l-1-1.4l0.5-0.3l0.9,1.3c0.2,0.3,0.3,0.4,0.4,0.4c0.1,0,0.2,0,0.3-0.1c0.1-0.1,0.2-0.2,0.1-0.3
	c0-0.1-0.1-0.3-0.3-0.5L36.4,32L36.9,31.6z"/>
<polygon class="st1" points="39.2,33.4 38.2,31.4 37.7,31.7 37.5,31.3 39.1,30.5 39.3,30.9 38.7,31.2 39.7,33.2 "/>
<polygon class="st1" points="40.5,32.8 39.7,30.3 41.1,29.9 41.2,30.3 40.4,30.5 40.6,31.1 41.3,30.9 41.5,31.3 40.7,31.5 
	40.9,32.3 41.8,32 41.9,32.4 "/>
<path class="st1" d="M43.5,30.7c0,0.4,0.1,0.6,0.2,0.8c0.1,0.1,0.2,0.2,0.3,0.2c0.1,0,0.2-0.1,0.3-0.2c0-0.1,0-0.4,0-0.8
	c0-0.4-0.1-0.6-0.2-0.7c-0.1-0.1-0.2-0.2-0.3-0.1c-0.1,0-0.2,0.1-0.2,0.2C43.5,30.1,43.5,30.3,43.5,30.7 M44,32c-0.1,0-0.2,0-0.3,0
	c-0.1,0-0.2-0.1-0.3-0.1c-0.1-0.1-0.2-0.2-0.3-0.4c-0.1-0.2-0.1-0.4-0.2-0.8c0-0.3,0-0.5,0-0.7c0-0.2,0-0.3,0.1-0.4
	c0.1-0.1,0.1-0.2,0.3-0.3c0.1-0.1,0.3-0.1,0.4-0.1c0.1,0,0.2,0,0.4,0c0.1,0,0.2,0.1,0.3,0.1c0.1,0.1,0.2,0.2,0.3,0.4
	c0.1,0.2,0.1,0.4,0.2,0.7c0,0.3,0.1,0.6,0,0.7c0,0.2,0,0.3-0.1,0.4c-0.1,0.1-0.1,0.2-0.3,0.3C44.3,32,44.2,32,44,32z"/>
<polygon class="st1" points="45.4,31.9 45.5,29.2 46.8,29.2 46.8,29.6 46,29.6 46,30.3 46.8,30.3 46.8,30.7 46,30.7 45.9,31.9 "/>
<polygon class="st1" points="48.5,32.1 48.9,29.9 48.3,29.8 48.3,29.4 50.1,29.7 50,30.1 49.4,30 49,32.2 "/>
<polygon class="st1" points="49.9,32.4 50.7,29.9 52.1,30.3 52,30.7 51.1,30.5 50.9,31.1 51.7,31.3 51.6,31.7 50.8,31.5 50.6,32.2 
	51.4,32.5 51.3,32.9 "/>
<path class="st1" d="M53.6,33C53.6,33,53.6,33,53.6,33c0,0.1,0,0.1-0.1,0.1c-0.1,0.2-0.3,0.4-0.5,0.4c-0.2,0.1-0.4,0-0.6-0.1
	c-0.1-0.1-0.2-0.1-0.3-0.2C52,33.2,52,33.1,52,33c-0.1-0.1-0.1-0.3,0-0.5c0-0.2,0.1-0.4,0.3-0.8c0.1-0.2,0.2-0.4,0.3-0.5
	c0.1-0.1,0.2-0.2,0.3-0.3c0.1-0.1,0.2-0.1,0.4-0.1c0.1,0,0.3,0.1,0.4,0.1c0.2,0.1,0.4,0.3,0.5,0.5c0.1,0.2,0,0.4-0.1,0.6l0,0
	l-0.5-0.3l0,0c0.1-0.1,0.1-0.2,0.1-0.3c0-0.1-0.1-0.1-0.1-0.2c-0.1-0.1-0.2,0-0.3,0c-0.1,0.1-0.2,0.3-0.4,0.7
	c-0.2,0.3-0.3,0.6-0.3,0.7c0,0.1,0,0.2,0.2,0.3c0.1,0,0.2,0,0.2,0c0.1,0,0.1-0.1,0.2-0.3c0,0,0,0,0,0c0,0,0,0,0,0L53.6,33z"/>
<polygon class="st1" points="54,34.3 53.5,34 55,31.8 55.5,32.1 54.9,33 55.4,33.3 56,32.5 56.5,32.8 54.9,35 54.5,34.6 55.1,33.7 
	54.6,33.3 "/>
<path class="st1" d="M55.3,35.3l1.9-1.9l0.5,0.5l-0.6,1.4c-0.1,0.2-0.1,0.3-0.2,0.5c-0.1,0.1-0.1,0.3-0.2,0.4
	c0.1-0.1,0.1-0.2,0.2-0.3c0.1-0.1,0.2-0.2,0.3-0.3l1-1.1l0.4,0.4l-1.9,1.9l-0.5-0.5l0.6-1.4c0-0.1,0.1-0.2,0.2-0.4
	c0.1-0.1,0.2-0.3,0.2-0.5C57.1,34,57,34.1,57,34.2c-0.1,0.1-0.2,0.2-0.2,0.2l-1.1,1.2L55.3,35.3z"/>
<path class="st1" d="M58.4,36.6c-0.3,0.2-0.5,0.4-0.6,0.5c-0.1,0.1-0.1,0.2,0,0.3c0.1,0.1,0.2,0.1,0.3,0.1c0.1,0,0.4-0.2,0.7-0.4
	c0.3-0.2,0.5-0.4,0.6-0.5c0.1-0.1,0.1-0.2,0-0.3c-0.1-0.1-0.2-0.1-0.3-0.1C59,36.3,58.8,36.4,58.4,36.6 M57.5,37.7
	c-0.1-0.1-0.1-0.2-0.2-0.3c0-0.1-0.1-0.2,0-0.3c0-0.1,0.1-0.3,0.2-0.4c0.1-0.1,0.3-0.3,0.6-0.5c0.2-0.2,0.4-0.3,0.6-0.3
	c0.1-0.1,0.3-0.1,0.4-0.1c0.1,0,0.2,0,0.4,0.1c0.1,0.1,0.2,0.2,0.3,0.3c0.1,0.1,0.1,0.2,0.2,0.3c0,0.1,0,0.2,0,0.3
	c0,0.1-0.1,0.3-0.2,0.4c-0.1,0.1-0.3,0.3-0.6,0.5c-0.3,0.2-0.5,0.3-0.6,0.4c-0.1,0.1-0.3,0.1-0.4,0.1c-0.1,0-0.2,0-0.4-0.1
	C57.7,37.9,57.6,37.8,57.5,37.7z"/>
<polygon class="st1" points="58.3,38.8 60.6,37.5 60.9,37.9 59,39.1 59.4,39.8 59,40 "/>
<path class="st1" d="M60.5,40.2c-0.4,0.1-0.6,0.3-0.7,0.3c-0.1,0.1-0.1,0.2-0.1,0.3c0,0.1,0.1,0.2,0.3,0.2c0.1,0,0.4-0.1,0.8-0.2
	c0.3-0.1,0.6-0.2,0.7-0.3c0.1-0.1,0.1-0.2,0.1-0.3c0-0.1-0.1-0.2-0.3-0.2C61.1,40,60.9,40.1,60.5,40.2 M59.4,41
	c0-0.1-0.1-0.2-0.1-0.3c0-0.1,0-0.2,0-0.3c0-0.1,0.1-0.3,0.3-0.4c0.2-0.1,0.4-0.2,0.7-0.4c0.3-0.1,0.5-0.2,0.6-0.2
	c0.2,0,0.3,0,0.4,0c0.1,0,0.2,0.1,0.3,0.2s0.2,0.2,0.2,0.4c0,0.1,0.1,0.2,0.1,0.3c0,0.1,0,0.2,0,0.3c0,0.1-0.1,0.2-0.3,0.3
	c-0.1,0.1-0.4,0.2-0.7,0.3c-0.3,0.1-0.5,0.2-0.7,0.2c-0.2,0-0.3,0-0.4,0c-0.1,0-0.2-0.1-0.3-0.2C59.5,41.3,59.4,41.2,59.4,41z"/>
<path class="st1" d="M61.6,43.6l-1.3,0.3c-0.1-0.2-0.1-0.3-0.2-0.4c0-0.1-0.1-0.2-0.1-0.3c0-0.2-0.1-0.3-0.1-0.4
	c0-0.1,0-0.2,0.1-0.3c0.1-0.1,0.2-0.2,0.3-0.3c0.2-0.1,0.4-0.2,0.8-0.3c0.3-0.1,0.5-0.1,0.6-0.1c0.2,0,0.3,0,0.4,0.1
	c0.1,0,0.2,0.1,0.3,0.2c0.1,0.1,0.1,0.3,0.2,0.4c0.1,0.3,0,0.5-0.1,0.7c-0.1,0.2-0.3,0.3-0.5,0.4l0,0L62,43l0,0
	c0.1,0,0.2-0.1,0.3-0.2c0.1-0.1,0.1-0.2,0.1-0.3c0-0.1-0.1-0.2-0.2-0.2c-0.1,0-0.4,0-0.8,0.1c-0.4,0.1-0.7,0.2-0.8,0.3
	c-0.1,0.1-0.1,0.2-0.1,0.4c0,0,0,0.1,0,0.1c0,0,0,0.1,0.1,0.1l0.6-0.1l-0.1-0.3l0.4-0.1L61.6,43.6z"/>
<polygon class="st1" points="60.4,44.8 61.4,44.7 63,43.8 63,44.5 61.9,44.9 63.1,45.3 63.1,45.9 61.4,45.2 60.4,45.3 "/>
<path class="st1" d="M60.7,48.3l0.8,0.1l0-0.1c0-0.1,0-0.3,0-0.3c0-0.1-0.1-0.1-0.3-0.1c-0.1,0-0.3,0-0.3,0c-0.1,0-0.1,0.1-0.1,0.3
	L60.7,48.3z M61.9,48.3l0,0.1l0.4,0L62.1,49l-0.4,0l0,0.3l-0.4,0l0-0.3l-1.2-0.1l0.1-0.8c0-0.2,0-0.3,0.1-0.3c0-0.1,0.1-0.1,0.1-0.2
	c0.1-0.1,0.2-0.1,0.3-0.1c0.1,0,0.2,0,0.4,0c0.2,0,0.3,0.1,0.4,0.2c0.1,0.1,0.1,0.2,0.1,0.4c0.1-0.1,0.1-0.2,0.3-0.3
	c0.1,0,0.3-0.1,0.5,0c0.2,0,0.4,0.1,0.5,0.3c0.1,0.1,0.1,0.4,0.1,0.6l0,0.1l-0.4-0.1l0-0.1c0-0.1,0-0.2,0-0.2c0-0.1-0.1-0.1-0.2-0.1
	c-0.1,0-0.2,0-0.3,0C61.9,48.1,61.9,48.2,61.9,48.3z"/>
<path class="st1" d="M60.7,50.4L60.5,51l-0.1,0c-0.1,0-0.2-0.1-0.3,0C60.1,51,60,51,60,51.1c0,0.1,0,0.2,0,0.2
	c0,0.1,0.1,0.1,0.2,0.1c0.1,0,0.3,0,0.5-0.2c0,0,0,0,0,0c0.1-0.1,0.2-0.2,0.3-0.2c0.1-0.1,0.1-0.1,0.2-0.1c0.1-0.1,0.2-0.1,0.3-0.1
	c0.1,0,0.2,0,0.3,0c0.2,0.1,0.4,0.2,0.4,0.4c0.1,0.2,0.1,0.4,0,0.6c-0.1,0.3-0.2,0.4-0.4,0.5c-0.2,0.1-0.4,0.1-0.6,0l-0.1,0l0.2-0.5
	l0,0c0.1,0,0.2,0,0.3,0c0.1,0,0.1-0.1,0.2-0.2c0-0.1,0-0.1,0-0.2c0-0.1-0.1-0.1-0.2-0.1c-0.1,0-0.3,0-0.6,0.3
	c-0.1,0.1-0.1,0.1-0.2,0.1c-0.2,0.1-0.3,0.2-0.4,0.2c-0.1,0-0.2,0-0.4,0c-0.2-0.1-0.4-0.2-0.5-0.4c-0.1-0.2-0.1-0.4,0-0.7
	c0.1-0.3,0.2-0.4,0.4-0.5C60.2,50.3,60.4,50.3,60.7,50.4C60.6,50.4,60.6,50.4,60.7,50.4C60.7,50.4,60.7,50.4,60.7,50.4"/>
<path class="st1" d="M59.2,54.1C59.2,54.1,59.2,54.1,59.2,54.1c-0.1,0-0.1,0-0.1-0.1c-0.2-0.1-0.4-0.3-0.4-0.5
	c-0.1-0.2,0-0.4,0.1-0.6c0.1-0.1,0.1-0.2,0.2-0.3c0.1-0.1,0.2-0.1,0.2-0.2c0.1-0.1,0.3-0.1,0.5,0c0.2,0,0.4,0.1,0.8,0.3
	c0.2,0.1,0.4,0.2,0.5,0.3c0.1,0.1,0.2,0.2,0.3,0.3c0.1,0.1,0.1,0.2,0.1,0.4c0,0.1-0.1,0.3-0.1,0.4c-0.1,0.2-0.3,0.4-0.5,0.4
	c-0.2,0.1-0.4,0-0.6-0.1l0,0l0.3-0.5l0,0c0.1,0.1,0.2,0.1,0.3,0.1c0.1,0,0.1-0.1,0.2-0.1c0.1-0.1,0-0.2,0-0.3
	c-0.1-0.1-0.3-0.2-0.7-0.4c-0.3-0.2-0.6-0.3-0.7-0.3c-0.1,0-0.2,0-0.3,0.2c0,0.1,0,0.2,0,0.2c0,0.1,0.1,0.1,0.3,0.2c0,0,0,0,0,0
	c0,0,0,0,0,0L59.2,54.1z"/>
<polygon class="st1" points="58.2,54 60.4,55.4 60.1,55.9 57.9,54.4 "/>
<polygon class="st1" points="57.6,54.8 59.7,56.5 58.8,57.6 58.5,57.4 59,56.7 58.5,56.3 58,56.9 57.7,56.7 58.2,56 57.6,55.5 
	57,56.2 56.7,56 "/>
<path class="st1" d="M56.4,56.2l1.8,1.9l-0.5,0.5L56.4,58c-0.2-0.1-0.3-0.2-0.4-0.2c-0.1-0.1-0.3-0.2-0.4-0.2
	c0.1,0.1,0.2,0.2,0.3,0.2c0.1,0.1,0.2,0.2,0.3,0.3l1.1,1.1l-0.4,0.4L55,57.6l0.5-0.5l1.4,0.7c0.1,0.1,0.2,0.1,0.4,0.2
	c0.1,0.1,0.3,0.2,0.5,0.3c-0.1-0.1-0.2-0.2-0.3-0.3c-0.1-0.1-0.2-0.2-0.2-0.2l-1.1-1.1L56.4,56.2z"/>
<path class="st1" d="M53.6,59.6C53.6,59.5,53.6,59.5,53.6,59.6c0-0.1-0.1-0.1-0.1-0.1c-0.1-0.2-0.2-0.4-0.1-0.6
	c0-0.2,0.2-0.4,0.4-0.5c0.1-0.1,0.2-0.1,0.3-0.1c0.1,0,0.2,0,0.3,0c0.1,0,0.3,0.1,0.4,0.2c0.1,0.1,0.3,0.3,0.5,0.7
	c0.1,0.2,0.2,0.4,0.3,0.5c0.1,0.1,0.1,0.3,0.1,0.4c0,0.1,0,0.2-0.1,0.3c-0.1,0.1-0.2,0.2-0.3,0.3c-0.2,0.1-0.4,0.2-0.6,0.2
	c-0.2,0-0.4-0.2-0.5-0.4l0,0l0.5-0.3l0,0c0.1,0.1,0.2,0.2,0.2,0.2c0.1,0,0.1,0,0.2,0c0.1-0.1,0.1-0.2,0.1-0.3c0-0.1-0.2-0.4-0.4-0.7
	c-0.2-0.3-0.3-0.5-0.5-0.6c-0.1-0.1-0.2-0.1-0.3,0c-0.1,0-0.1,0.1-0.1,0.2c0,0.1,0,0.2,0.1,0.3c0,0,0,0,0,0c0,0,0,0,0,0L53.6,59.6z"
	/>
<polygon class="st1" points="52.8,59 54,61.4 52.7,62 52.5,61.6 53.3,61.2 53,60.7 52.3,61 52.1,60.7 52.8,60.3 52.5,59.6 51.7,60 
	51.5,59.6 "/>
</svg>
